<svg xmlns="http://www.w3.org/2000/svg" width="403" height="150"><path fill="#fff" d="M351 50c2.44 2.56 2.44 2.56 4 5l2 2q.63-.825 1.29-1.68c3.84-4.75 6.41-7.42 12.71-8.32 5.56-.51 10.14.29 15 3 5.24 4.89 6.77 10.03 7.17 16.99.06 3.57.05 7.13.03 10.7-.01 1.3-.01 2.59-.01 3.93-.01 3.43-.03 6.85-.05 10.28-.02 3.51-.03 7.01-.04 10.52-.02 6.86-.06 13.72-.1 20.58h-26c-.04-3.86-.07-7.73-.11-11.71l-.15-11.2c-.04-2.6-.06-5.19-.09-7.79-.03-3.73-.08-7.46-.14-11.19 0-1.17-.01-2.34-.02-3.54l-.06-3.27-.03-2.89c-.22-2.46-.22-2.46-1.76-4.26-1.67-1.43-1.67-1.43-4.26-.9-2.31.53-2.31.53-3.38 1.75-.12 1.72-.18 3.44-.21 5.16l-.06 3.34c-.01 1.2-.03 2.39-.05 3.63l-.06 3.69c-.07 3.92-.12 7.83-.18 11.74-.05 2.65-.09 5.29-.13 7.94-.11 6.5-.21 13-.31 19.5h-26c-.04-3.95-.07-7.89-.11-11.96l-.15-11.43c-.04-2.65-.06-5.31-.09-7.96-.03-3.81-.08-7.62-.14-11.42 0-1.2-.01-2.39-.02-3.62l-.06-3.33c-.01-1.46-.01-1.46-.03-2.95-.13-.77-.26-1.54-.4-2.33-2.77-2.3-2.77-2.3-5.62-1.75-.79.25-1.57.5-2.38.75-1.27 2.53-1.16 4.35-1.21 7.18l-.06 3.28c-.02 1.76-.02 1.76-.05 3.55l-.06 3.62-.18 11.49c-.05 2.6-.09 5.19-.13 7.78-.11 6.37-.21 12.73-.31 19.1h-26V48h26l1 10a803 803 0 0 1 2.5-3.81C329.43 45 341.25 45.12 351 50m-138-2c7.12-.07 14.23-.13 21.35-.16 2.42-.02 4.84-.04 7.26-.07 3.48-.03 6.97-.05 10.45-.06 1.08-.02 2.15-.03 3.26-.05 6.94 0 13.06.46 18.7 4.95.45.56.9 1.12 1.36 1.7.69.83.69.83 1.39 1.68 2.75 4.5 3.48 8.9 3.46 14.11v3.58l-.03 3.81c-.01 1.3-.01 2.6-.01 3.94-.01 3.45-.03 6.89-.05 10.33-.02 3.52-.03 7.04-.04 10.56-.02 6.89-.06 13.79-.1 20.68h-26l-1-10c-.8 1.07-1.61 2.14-2.44 3.25-4.44 5.09-9.02 7.37-15.75 8.09-7.44.21-14.06.03-19.78-5.11-5.31-5.69-7.57-10.93-7.33-18.74.96-7.89 3.94-14.31 9.8-19.7 4.79-3.43 10.07-5.53 15.5-7.79l-20-1zm29.65 27.26C237.18 81.03 232.05 87.74 232 96c.93 4.18 2.36 6.58 6 9 4.88 1.33 8.33.94 13-1 2.69-3.58 3.38-6.2 3.4-10.63 0-1.06.01-2.11.01-3.19l-.03-3.3.03-3.33c-.01-1.58-.01-1.58-.01-3.18 0-.96-.01-1.92-.01-2.91-.21-2.49-.21-2.49-1.66-4.3-4.03-2.71-6.9-.76-10.08 2.1M70.25 52.188c6.01 6.14 7.88 12.96 7.86 21.43v3.33c0 1.18-.01 2.36-.01 3.57 0 1.22-.01 2.43-.01 3.68q0 5.805-.03 11.61c0 2.63-.01 5.26-.01 7.89-.01 6.43-.03 12.87-.05 19.3H52c-.06-5.56-.06-5.56-.11-11.23l-.15-10.76c-.04-2.5-.06-4.99-.09-7.49-.03-3.58-.08-7.17-.14-10.75 0-1.12-.01-2.24-.02-3.39l-.06-3.15-.03-2.77c-.48-2.95-1.33-4.32-3.4-6.46-3.97-1.1-6.09-1.41-9.87.31-2.22 1.52-2.22 1.52-3.13 3.69-.12 1.67-.18 3.33-.21 5l-.06 3.16c-.01 1.12-.03 2.25-.05 3.41l-.06 3.49-.18 11.07c-.05 2.49-.09 4.99-.13 7.49-.11 6.12-.21 12.25-.31 18.38H8v-75h26l1 10c.97-1.26 1.94-2.51 2.94-3.81 8.77-9.99 21.94-8.98 32.31-2M130 48h68c-.84 4.18-1.46 6.22-3.48 9.75l-1.57 2.75c-.56.97-1.12 1.94-1.7 2.94-.57 1-1.15 2-1.74 3.03C183.45 77.04 177.23 87.52 171 98c13.37.5 13.37.5 27 1v24h-68c0-4.97.23-6.01 2.64-10 .57-.96 1.14-1.92 1.73-2.91l1.88-3.09c1.28-2.15 2.56-4.29 3.84-6.44.65-1.08 1.3-2.17 1.97-3.29 3-5.05 5.91-10.16 8.82-15.27l5.12-9h-26zm-38 0h26v75H92zm0-28h26v24H92z"/></svg>