<svg xmlns="http://www.w3.org/2000/svg" width="403" height="150"><path fill="#0c0b0e" d="M351.441 49.855c2.04 1.5 3.4 2.89 4.56 5.14v3h2c.2-.72.41-1.44.62-2.18 1.86-3.8 3.97-5.31 7.38-7.82 5.91-1.97 12.63-1.8 18.5.19 5.5 3.99 7.97 8.57 9.04 15.18.69 5.8.58 11.61.56 17.45-.01 1.21-.01 2.42-.01 3.66 0 3.84-.02 7.68-.03 11.52 0 2.62-.01 5.23-.01 7.84-.01 6.39-.03 12.78-.05 19.16h-26c-.05-3.78-.1-7.55-.15-11.45-.05-3.66-.11-7.31-.17-10.97-.04-2.54-.07-5.09-.1-7.63-.05-3.65-.11-7.31-.17-10.96l-.03-3.45-.06-3.22c-.02-.93-.03-1.86-.04-2.82-.29-2.6-.97-4.26-2.28-6.5q-3-.06-6 0c-1.71 1.71-1.17 3.93-1.21 6.26l-.06 3.4c-.02 1.83-.02 1.83-.05 3.69l-.06 3.76c-.06 3.31-.11 6.62-.15 9.92-.05 3.37-.11 6.75-.16 10.12-.11 6.62-.21 13.24-.31 19.85h-26l-1-57h-9l-1 57h-26v-75h26l1 9c.68-1.09 1.36-2.18 2.06-3.31 6.47-8.87 19.34-9.15 28.38-3.83M213 48c7.4-.09 14.8-.17 22.2-.22 2.52-.02 5.04-.05 7.55-.08 3.63-.05 7.25-.07 10.87-.09l3.39-.06c6.82-.01 11.19.79 16.99 4.45 4.75 4.87 6.25 9.45 6.23 16.17v3.7l-.03 3.96c-.01 1.36-.01 2.72-.01 4.08-.01 3.57-.03 7.14-.05 10.71-.02 3.65-.03 7.29-.04 10.94-.02 7.15-.06 14.29-.1 21.44h-26c-.5-4.45-.5-4.45-1-9-.97 1.09-1.94 2.19-2.94 3.31-5.46 5.41-11.06 6.8-18.62 7.07-7.17-.23-13.35-2.15-18.44-7.38-5.03-6.51-5-14.1-4-22 2.24-7.83 7.25-13.58 14-18 4.28-1.98 8.51-3.49 13-5-11.38-.5-11.38-.5-23-1zm35 23c-7.38 6.74-14.91 13.75-15.56 24.31.63 4.13 1.59 5.81 4.56 8.69 2.41 1.2 4.13 1.27 6.81 1.38.85.04 1.71.09 2.58.14 2.76-.4 2.76-.4 5.41-2.18 3.54-5.37 2.72-10.88 2.51-17.15-.02-1.27-.04-2.53-.07-3.84-.05-3.12-.14-6.23-.24-9.35zM68.063 49.605c5.64 4.06 8.71 9.63 9.94 16.39.27 4.39.23 8.76.19 13.16 0 1.25 0 2.51-.01 3.8-.01 3.32-.02 6.63-.05 9.95-.02 3.39-.02 6.78-.03 10.17-.03 6.64-.06 13.28-.1 19.92h-26c-.03-3.78-.05-7.55-.08-11.45-.04-3.66-.08-7.31-.13-10.97-.03-2.54-.05-5.09-.06-7.63-.02-3.65-.07-7.31-.12-10.96 0-1.14-.01-2.28-.01-3.45l-.06-3.22c-.01-.93-.01-1.86-.02-2.82-.68-3.23-1.99-4.44-4.52-6.5-2.91-.7-4.95-.34-8 0-2.18 1.55-2.82 2.64-4 5-.12 1.67-.18 3.34-.21 5.01l-.06 3.15c-.01 1.13-.03 2.25-.05 3.41l-.06 3.49q-.105 5.535-.18 11.07c-.05 2.5-.09 4.99-.14 7.49l-.3 18.38h-26v-75h26l1 10c.66-1.07 1.32-2.14 2-3.25 7.13-9.76 20.71-10.52 31.06-5.14M130 48h68c-.84 5.07-1.31 7.05-3.77 11.17-.58.97-1.15 1.93-1.74 2.93-.61 1.02-1.23 2.04-1.87 3.09l-3.81 6.42c-.95 1.6-.95 1.6-1.93 3.23-2.79 4.7-5.53 9.43-8.26 14.16-1.52 2.64-3.05 5.28-4.62 8 12.87.5 12.87.5 26 1v25h-68c.89-5.33 1.65-7.65 4.25-12.11.32-.57.65-1.14.99-1.72 1.06-1.84 2.13-3.66 3.2-5.48.73-1.26 1.46-2.52 2.18-3.77 1.79-3.09 3.59-6.16 5.39-9.24 1.43-2.43 2.85-4.87 4.28-7.3 2.22-3.8 4.46-7.59 6.71-11.38h-27zm-38 0h26v75H92zm0-29h26v25H92z"/></svg>