<?xml version="1.0" encoding="UTF-8"?>
<!-- Generator: visioncortex VTracer 0.6.4 -->
<svg version="1.1" xmlns="http://www.w3.org/2000/svg" width="256" height="256">
<path d="M0 0 C22.04 18.81 36.47 41.06 44.35 68.91 C44.69 70.09 45.03 71.27 45.39 72.48 C52.92 104.37 46.54 140.39 29.71 168.21 C11.42 197.3 -15.82 216.61 -48.65 225.91 C-49.83 226.25 -51 226.59 -52.22 226.95 C-84.11 234.48 -120.12 228.1 -147.95 211.27 C-177.04 192.98 -196.35 165.73 -205.65 132.91 C-205.99 131.73 -206.33 130.55 -206.68 129.34 C-214.22 97.45 -207.84 61.43 -191.01 33.61 C-172.72 4.52 -145.47 -14.79 -112.65 -24.09 C-111.47 -24.43 -110.29 -24.77 -109.08 -25.12 C-71.91 -33.91 -29.44 -24.15 0 0 Z " fill="#010101" transform="translate(208.6484375,27.08984375)"/>
<path d="M0 0 C25.08 0 50.16 0 76 0 C78.25 14.62 78.25 14.62 78.81 20.43 C78.93 21.74 79.06 23.05 79.19 24.4 C79.32 25.79 79.45 27.19 79.59 28.58 C79.73 30.06 79.87 31.55 80.02 33.03 C80.4 36.96 80.77 40.89 81.14 44.82 C81.53 48.89 81.92 52.96 82.31 57.03 C82.78 61.88 83.25 66.73 83.71 71.58 C84.56 80.5 85.43 89.42 86.31 98.33 C86.45 99.76 86.45 99.76 86.6 101.22 C87.1 106.34 87.1 106.34 87.61 111.46 C87.84 113.67 88.06 115.88 88.27 118.1 C88.39 119.28 88.51 120.46 88.63 121.68 C89.18 128.11 89.57 134.56 90 141 C90.33 94.47 90.66 47.94 91 0 C104.2 0 117.4 0 131 0 C131 52.8 131 105.6 131 160 C105.59 160 80.18 160 54 160 C53.67 155.38 53.34 150.76 53 146 C52.53 141.87 52.03 137.75 51.5 133.62 C50.64 126.75 49.85 119.92 49.5 113 C48.81 101.96 47.32 90.98 46 80 C44.35 62.84 42.7 45.68 41 28 C40.67 71.56 40.34 115.12 40 160 C26.8 160 13.6 160 0 160 C0 107.2 0 54.4 0 0 Z " fill="#F4F0F0" transform="translate(64,49)"/>
</svg>
